<?xml version="1.0" encoding="UTF-8" standalone="no"?>
<!-- Created with Inkscape (http://www.inkscape.org/) -->

<svg
   width="180.272mm"
   height="180.43201mm"
   viewBox="0 0 180.272 180.43201"
   version="1.1"
   id="svg5"
   inkscape:version="1.1.2 (0a00cf5339, 2022-02-04)"
   sodipodi:docname="instagram.svg"
   xmlns:inkscape="http://www.inkscape.org/namespaces/inkscape"
   xmlns:sodipodi="http://sodipodi.sourceforge.net/DTD/sodipodi-0.dtd"
   xmlns="http://www.w3.org/2000/svg"
   xmlns:svg="http://www.w3.org/2000/svg">
  <sodipodi:namedview
     id="namedview7"
     pagecolor="#ffffff"
     bordercolor="#666666"
     borderopacity="1.0"
     inkscape:pageshadow="2"
     inkscape:pageopacity="0.0"
     inkscape:pagecheckerboard="0"
     inkscape:document-units="mm"
     showgrid="false"
     width="180.272mm"
     inkscape:zoom="0.37683081"
     inkscape:cx="387.44178"
     inkscape:cy="562.5867"
     inkscape:window-width="1920"
     inkscape:window-height="1031"
     inkscape:window-x="0"
     inkscape:window-y="0"
     inkscape:window-maximized="1"
     inkscape:current-layer="layer1" />
  <defs
     id="defs2" />
  <g
     inkscape:label="Capa 1"
     inkscape:groupmode="layer"
     id="layer1">
    <path
       style="fill:#000000;stroke-width:0.352778"
       d="M 41.452667,180.18834 C 37.680475,179.69072 32.520993,178.2409 28.583664,176.57212 16.403555,171.40974 6.1594627,160.13498 2.1675027,147.49819 -0.13059028,140.22344 0.00127872,143.70792 0.00127872,90.258106 c 0,-45.4413 0.04026,-48.693667 0.637016,-51.461371 C 2.8416487,28.577773 6.8849667,21.031439 13.90328,14.039346 21.719467,6.2523586 31.450514,1.5105086 42.105257,0.29678164 c 2.363636,-0.269252 17.747731,-0.349889 50.323798,-0.263776 51.602055,0.136407 47.729695,-0.02335 54.984465,2.26842996 14.22031,4.492194 26.19156,16.4734414 30.69097,30.7165904 2.29809,7.274748 2.16623,3.790267 2.16623,57.24008 0,45.943694 -0.0346,48.665404 -0.65488,51.505554 -2.24339,10.27219 -6.1881,17.62766 -13.26109,24.72717 -6.80347,6.82899 -13.65456,10.59185 -23.83126,13.08898 l -3.175,0.77908 -47.801375,0.066 c -26.290767,0.0363 -48.833267,-0.0702 -50.094448,-0.23652 z M 125.5184,147.66626 c 11.26367,-3.52128 19.25095,-11.73571 22.20446,-22.83593 l 0.79786,-2.99861 V 89.905326 57.978936 l -0.97336,-3.10324 C 144.09218,43.859946 136.53415,36.301919 125.5184,32.84674 l -3.10324,-0.973357 H 90.136005 57.856834 L 54.69924,32.862491 C 43.833614,36.266119 36.144014,43.955716 32.740386,54.821346 l -0.989108,3.15759 v 32.27917 32.279174 l 0.973357,3.10324 c 3.822199,12.18587 13.387768,20.73056 25.541333,22.81544 0.939144,0.16111 15.756907,0.26761 32.928367,0.23668 l 31.220825,-0.0562 z m -66.779622,-9.98074 c -7.756708,-1.67195 -14.408442,-8.38865 -16.049836,-16.20658 -0.769412,-3.66469 -0.769412,-58.776974 0,-62.441664 1.659562,-7.90447 8.321756,-14.56667 16.226225,-16.22623 3.664694,-0.76941 58.776963,-0.76941 62.441663,0 7.92074,1.66298 14.56324,8.30548 16.22622,16.22623 0.76942,3.66469 0.76942,58.776974 0,62.441664 -1.65956,7.90447 -8.32175,14.56667 -16.22622,16.22623 -3.56105,0.74765 -59.139229,0.73022 -62.618052,-0.0196 z m 36.615567,-21.52655 c 10.425365,-2.13739 18.545125,-10.25714 20.682505,-20.682524 2.91371,-14.21199 -6.37345,-28.18559 -20.682505,-31.1192 -14.211995,-2.91371 -28.185593,6.37345 -31.119204,20.68251 -3.766305,18.370644 12.74857,34.885514 31.119204,31.119214 z m -9.005573,-10.5697 c -8.090567,-2.17889 -13.169138,-9.862624 -11.79915,-17.851774 1.16519,-6.79487 6.359578,-11.91721 13.288363,-13.10407 6.34245,-1.08641 13.113935,2.32781 16.176795,8.15644 2.55973,4.87118 2.56399,10.0572 0.0122,14.91318 -3.33503,6.346584 -10.886565,9.715304 -17.678245,7.886224 z M 123.56132,64.215616 c 1.48441,-1.057 2.32577,-2.98272 2.11606,-4.84329 -0.33429,-2.96576 -2.82781,-4.98491 -5.74938,-4.6556 -6.79759,0.76618 -5.87417,10.93865 0.94278,10.38584 0.91608,-0.0743 2.09509,-0.46295 2.69054,-0.88695 z"
       id="path880" />
  </g>
</svg>
