<?xml version="1.0" encoding="UTF-8" standalone="no"?>
<!-- Created with Inkscape (http://www.inkscape.org/) -->

<svg
   width="1024"
   height="268"
   viewBox="0 0 1024 268"
   version="1.1"
   id="svg5"
   inkscape:version="1.1.2 (0a00cf5339, 2022-02-04)"
   sodipodi:docname="logo.svg"
   xmlns:inkscape="http://www.inkscape.org/namespaces/inkscape"
   xmlns:sodipodi="http://sodipodi.sourceforge.net/DTD/sodipodi-0.dtd"
   xmlns="http://www.w3.org/2000/svg"
   xmlns:svg="http://www.w3.org/2000/svg">
  <sodipodi:namedview
     id="namedview7"
     pagecolor="#ffffff"
     bordercolor="#666666"
     borderopacity="1.0"
     inkscape:pageshadow="2"
     inkscape:pageopacity="0.0"
     inkscape:pagecheckerboard="0"
     inkscape:document-units="px"
     showgrid="false"
     width="1024px"
     inkscape:zoom="0.31380208"
     inkscape:cx="272.46473"
     inkscape:cy="538.55602"
     inkscape:window-width="1920"
     inkscape:window-height="1031"
     inkscape:window-x="0"
     inkscape:window-y="0"
     inkscape:window-maximized="1"
     inkscape:current-layer="layer1" />
  <defs
     id="defs2" />
  <rect
     style="fill:#ffffff;fill-opacity:1;stroke:#00e300;stroke-width:4.05433;paint-order:fill markers stroke"
     id="rect3003"
     width="1019.9456"
     height="263.94568"
     x="2.0271912"
     y="2.0271606" />
  <g
     inkscape:label="Capa 1"
     inkscape:groupmode="layer"
     id="layer1">
    <path
       id="path928"
       style="display:inline;fill:#1f2937;fill-opacity:1;stroke-width:1"
       d="M 0,-0.00195 V 139.58007 268.00195 H 1024 V 139.58007 -0.00195 Z m 197.04492,32.00391 c 7.73752,0.007 15.45989,0.62951 19.95507,1.86718 21.82281,6.00847 39.25405,20.63349 49.12109,41.21093 6.15289,12.83171 7.39058,18.85183 7.29688,35.50001 -0.0727,12.90488 -0.37405,15.38006 -2.74414,22.5 -9.95237,29.89757 -35.18081,50.36895 -65.89063,53.46483 -14.3749,1.44915 -31.66047,-1.58642 -42.43164,-7.45116 l -4.14844,-2.25977 -8.33398,8.37695 -8.33397,8.37696 13.73436,13.76171 13.73438,13.75977 -10.76758,10.73632 c -5.92261,5.90427 -11.04345,10.73438 -11.3789,10.73438 -0.33546,0 -6.35385,-6.09277 -13.37501,-13.53906 l -12.76561,-13.53905 -8.19922,8.00389 c -8.80652,8.59583 -11.40184,10.07422 -17.679693,10.07422 -3.61455,0 -4.745986,-0.68793 -10.917968,-6.64648 -7.3761,-7.12097 -8.73359,-10.20312 -7.46875,-16.94531 0.55868,-2.97803 5.245531,-8.30364 27.453121,-31.19727 l 26.77929,-27.60742 -3.73046,-8.05274 c -5.63998,-12.16831 -7.35158,-20.08153 -7.36328,-34.05077 -0.0116,-13.81875 2.12348,-23.1391 8.06836,-35.22267 C 136.80903,55.2574 156.34336,39.41356 177,33.83594 c 4.55469,-1.22988 12.30738,-1.84067 20.04492,-1.83398 z m 203.95506,33.57811 h 11 11 v 56.50001 56.49999 h -11 -11 v -56.49999 z m -204.05271,2.50001 c -10.16626,-7.7e-4 -10.82668,0.1369 -18.08986,3.72655 -21.38261,10.56788 -29.61329,34.50205 -19.33594,56.22656 5.28567,11.17299 18.43818,20.67533 30.97852,22.38087 24.81809,3.37534 46.40534,-13.32535 48.21875,-37.30273 1.37349,-18.16064 -8.28068,-34.29099 -25.28905,-42.25391 -5.30743,-2.48482 -7.0386,-2.77663 -16.48242,-2.77734 z m 154.70702,0.73242 c 8.26855,0.4325 10.29679,0.93404 16.80858,4.15235 11.34966,5.60929 19.60711,16.55369 21.18751,28.08398 l 0.62109,4.53125 H 379.2246 368.17577 l -0.67187,-3.97656 c -0.77338,-4.57764 -3.8193,-9.46311 -7.6875,-12.32813 -1.92086,-1.4227 -4.76407,-2.10896 -10,-2.41407 -6.22009,-0.36244 -7.98823,-0.0779 -11.80274,1.89649 -9.56204,4.94926 -13.01367,14.58247 -13.01367,36.32227 0,27.11581 5.28323,36.29691 21.42773,37.23437 5.9516,0.3456 7.78424,0.0422 11.56446,-1.91211 5.21453,-2.69584 8.56038,-7.21479 9.51172,-12.8457 l 0.67187,-3.97656 h 11.05078 11.05274 l -0.5879,4.95702 c -1.65574,13.98025 -13.57978,26.51337 -29.1914,30.6836 -7.13905,1.90702 -21.78779,1.64239 -28.5,-0.51563 -7.5948,-2.44178 -9.6466,-3.67625 -15.83594,-9.5293 -10.18803,-9.63446 -14.17659,-22.12772 -14.14649,-44.30272 0.0281,-20.71544 3.55954,-32.29154 13.00195,-42.62305 9.11717,-9.97562 20.8113,-14.26517 36.63478,-13.4375 z m 463.34568,0.50977 v 8.99023 8.99024 l -5.80274,0.52539 c -12.32859,1.11791 -20.63496,7.15564 -26.28906,19.10742 -3.9049,8.25412 -3.7047,9.10811 1.3418,5.74414 6.3864,-4.25711 10.99815,-5.40106 19.74805,-4.89453 12.10339,0.70066 19.27421,5.82332 24.91211,17.79492 2.3413,4.97171 2.58822,6.65262 2.57422,17.49999 -0.0132,10.17771 -0.344,12.70939 -2.17969,16.66992 -4.1473,8.94761 -12.01222,15.8837 -21.73242,19.16602 -5.8555,1.97728 -17.28955,2.08773 -23.24805,0.22462 -9.4606,-2.95816 -17.57657,-10.62288 -22.63867,-21.38086 -2.9742,-6.32089 -3.16354,-7.44061 -3.52344,-20.83986 -0.6544,-24.36425 4.18117,-39.71688 16.32617,-51.83983 8.9044,-8.88826 19.13972,-13.39025 34.26172,-15.06641 z m 63.49999,0.78515 c 12.477,-0.0341 18.0095,2.14601 25.4707,10.03516 9.5135,10.05913 11.55452,18.07188 11.44922,44.9375 -0.0866,22.10117 -1.3222,29.87437 -6.1582,38.75976 -3.4588,6.35499 -10.08524,12.16516 -16.61523,14.56836 -10.01721,3.68665 -21.46465,3.37492 -30.13086,-0.82032 -6.04329,-2.92551 -13.90193,-11.75206 -16.39453,-18.41405 -3.23551,-8.6475 -4.44445,-21.2555 -3.84375,-40.09376 0.7302,-22.90115 4.10102,-33.35825 13.38282,-41.5078 6.6191,-5.81162 11.58524,-7.43405 22.83983,-7.46485 z m -169.49998,0.0176 c 10.82079,-0.0425 11.88345,0.13758 18.00585,3.03905 11.9334,5.65542 17.40155,13.68385 17.31055,25.41602 -0.0804,10.34494 -3.42402,16.45435 -12.04101,22 l -4.22462,2.71875 4.00977,1.80859 c 5.77761,2.60534 10.56709,8.38238 12.52148,15.10547 4.3109,14.82888 -3.18584,30.26757 -17.96484,36.99805 -5.24379,2.38806 -7.61679,2.82672 -16.61719,3.06445 -10.64289,0.28113 -14.99749,-0.53486 -21.80859,-4.08398 -9.0788,-4.73081 -16.16263,-14.95617 -16.18163,-23.36133 l -0.01,-4.25002 h 10.49999 c 10.2211,0 10.50391,0.0598 10.50391,2.25 0.005,3.24301 3.45277,8.42347 6.70117,10.06836 7.16291,3.62707 15.72367,2.71392 20.63867,-2.20117 2.5229,-2.52287 3.09203,-3.99619 3.44922,-8.93554 0.8821,-12.19387 -3.82312,-16.38915 -19.08203,-17.01563 l -9.78711,-0.40234 0.28712,-8.13086 0.28905,-8.13281 8.5,-0.54884 c 12.6652,-0.81736 17.16804,-3.86583 18.55664,-12.56639 0.4899,-3.06937 0.13191,-5.30156 -1.4082,-8.78321 -2.54899,-5.76252 -7.0599,-8.0573 -14.44532,-7.34766 -5.80439,0.55774 -9.55385,3.06976 -12.03514,8.06055 l -1.83204,3.68554 h -10.41797 c -11.87409,0 -11.71379,0.15871 -8.74219,-8.56249 2.32191,-6.81445 10.08497,-14.41779 17.85547,-17.48828 5.01401,-1.98126 7.80886,-2.3664 17.46876,-2.4043 z m 168.74021,16.7539 c -5.65539,0.48694 -8.26749,2.53572 -11.09178,8.70118 -1.82951,3.99373 -2.10739,6.92817 -2.4629,26.07617 -0.43409,23.38032 0.38645,30.5094 4.15234,36.09766 1.2221,1.8134 3.33291,3.85945 4.69141,4.54686 5.97831,3.02511 14.3685,0.27822 17.47071,-5.72069 2.1664,-4.18938 3.48766,-16.74182 3.47266,-33 -0.0265,-28.64822 -4.05223,-37.74989 -16.23244,-36.70118 z m -406.9531,9.98438 c 13.52022,-0.49623 24.88066,5.2691 29.9375,15.56641 l 2.77539,5.65037 0.60548,28 c 0.33335,15.39999 0.94888,29.0125 1.36719,30.25 0.75678,2.23889 0.70925,2.24999 -9.75783,2.24999 h -10.51953 l -1.10351,-3.16797 -1.10547,-3.16796 -2.24218,2.05078 c -1.23388,1.12813 -3.81915,2.85205 -5.74415,3.83007 -5.28981,2.68755 -16.25803,2.95408 -22.98241,0.5586 -10.0155,-3.56788 -16.00587,-12.21547 -16.00587,-23.10352 0,-17.09815 12.68008,-25.99999 37.03711,-25.99999 h 8.95117 v -4.54883 c 0,-8.98787 -4.7408,-13.19144 -13.73438,-12.17774 -4.8061,0.54173 -9.26562,4.04788 -9.26562,7.28321 0,1.17208 -2.08847,1.44336 -11.08007,1.44336 h -11.07812 l 0.69922,-3.25001 c 1.08151,-5.0221 2.96043,-8.06688 7.52148,-12.1875 5.35028,-4.83367 10.68826,-7.17121 19.81054,-8.67772 2.00748,-0.33154 3.9826,-0.53068 5.91406,-0.60157 z m 161.05858,0.0664 c 12.69351,1.18534 21.98387,7.78772 27.47657,19.52538 2.7152,5.80219 3.11535,7.84126 3.49804,17.83789 l 0.43164,11.28711 h -25.12694 c -24.5916,0 -25.125,0.0423 -25.125,2.03125 0,3.50571 2.60386,8.45614 5.91016,11.23827 8.01519,6.74434 21.84426,5.86908 30.17186,-1.91015 l 2.58203,-2.4121 4.79297,6.09961 4.79102,6.10156 -3.37305,3.48437 c -1.85599,1.91652 -6.27321,4.91292 -9.8164,6.6582 -5.762,2.83829 -7.50381,3.19926 -16.5,3.42773 -13.9685,0.35474 -22.25011,-2.62484 -30.25781,-10.88671 -13.7217,-14.15721 -14.52473,-42.73953 -1.67383,-59.58789 6.3993,-8.38997 20.40954,-13.9973 32.21874,-12.89453 z m -109.34569,1.65037 c 8.41412,0 11.5,0.32943 11.5,1.22656 0,1.53342 14.23688,50.86973 14.58008,50.5254 0.2354,-0.23629 10.93785,-38.24091 13.37695,-47.50195 l 1.11914,-4.25001 h 11.57031 c 10.6123,0 11.51026,0.14465 10.88086,1.75001 -0.5761,1.46906 -5.19626,14.66766 -25.46875,72.74999 l -1.7461,5 -10.05468,0.28321 -10.05469,0.28515 -2.49805,-7.28516 C 515.99397,113.89078 510.99998,99.2507 510.99998,98.94336 c 0,-0.20024 5.175,-0.36329 11.5,-0.36329 z m 104.34569,16.0547 c -4.49006,0.40425 -8.91205,2.93014 -11.57031,7.95702 -1.2512,2.36608 -2.27538,5.35799 -2.27538,6.64648 v 2.3418 h 14.5 14.49999 v -3.03125 c 0,-9.36538 -7.67082,-14.58782 -15.1543,-13.91405 z m 168.08594,9.96092 c -8.17009,0.29113 -15.93164,6.49685 -15.93164,14.6758 0,5.04692 2.99357,14.61159 5.67188,18.12303 1.4228,1.86537 3.99053,4.02498 5.70703,4.80078 3.9223,1.77277 10.14365,1.13119 13.53515,-1.39648 4.8884,-3.64336 6.58594,-7.9537 6.58594,-16.71874 0,-9.5582 -2.24626,-14.82178 -7.53516,-17.6582 -2.54205,-1.36333 -5.30984,-1.92321 -8.0332,-1.82619 z m -312.93163,16.69923 -7.8457,0.5371 c -4.31553,0.29581 -9.28386,1.27985 -11.03907,2.18751 -7.34578,3.79865 -8.00727,14.36562 -1.11523,17.80859 4.31469,2.15543 7.95245,2.21581 12.74609,0.2129 6.62385,-2.76762 7.25391,-3.87686 7.25391,-12.75978 z" />
  </g>
</svg>
